<svg role="img" viewBox="0 0 24 24" xmlns="http://www.w3.org/2000/svg"><title>Lotus</title><path d="M8.415,13.143C7.85,13.143 7.392,13.601 7.392,14.166 7.392,14.731 7.85,15.189 8.415,15.189 8.98,15.189 9.438,14.731 9.438,14.166 9.438,13.601 8.98,13.143 8.415,13.143ZM10.666,12.526L13.338,12.526 13.421,13.213 12.357,13.213 12.357,15.817 11.643,15.817 11.643,13.213 10.582,13.213 10.666,12.526ZM3.879,12.526L4.594,12.526 4.594,15.127 6.363,15.127 6.28,15.817 3.879,15.817 3.879,12.526ZM16.391,12.526L17.102,12.526 17.102,14.403C17.102,15.212 16.446,15.867 15.637,15.867 14.829,15.867 14.173,15.212 14.173,14.403L14.173,12.549 14.883,12.549 14.883,13.147 14.883,14.403C14.883,14.819 15.221,15.157 15.637,15.157 16.054,15.157 16.391,14.819 16.391,14.403L16.391,13.147 16.391,12.526 16.391,12.526ZM19.277,12.477C19.478,12.477 19.674,12.502 19.867,12.552 20.059,12.602 20.227,12.674 20.371,12.767L20.146,13.343C19.855,13.172 19.563,13.086 19.272,13.086 19.068,13.086 18.918,13.12 18.82,13.189 18.722,13.257 18.674,13.348 18.674,13.46 18.674,13.573 18.73,13.657 18.843,13.711 18.955,13.766 19.127,13.819 19.358,13.873 19.598,13.932 19.795,13.991 19.948,14.051 20.101,14.11 20.232,14.204 20.342,14.332 20.451,14.459 20.506,14.633 20.506,14.851 20.506,15.038 20.456,15.209 20.355,15.363 20.255,15.518 20.104,15.641 19.903,15.731 19.701,15.821 19.457,15.867 19.169,15.867 18.92,15.867 18.679,15.831 18.446,15.761 18.259,15.705 18.102,15.635 17.974,15.551L18.059,14.856 18.133,14.916C18.268,15.019 18.429,15.102 18.615,15.164 18.801,15.227 18.987,15.258 19.173,15.258 19.38,15.258 19.534,15.226 19.633,15.162 19.732,15.098 19.781,15.013 19.781,14.907 19.781,14.829 19.752,14.764 19.693,14.713 19.635,14.661 19.56,14.62 19.468,14.589 19.376,14.557 19.253,14.523 19.097,14.486 18.857,14.427 18.66,14.367 18.507,14.308 18.354,14.249 18.223,14.153 18.113,14.022 18.003,13.891 17.949,13.716 17.949,13.498 17.949,13.307 17.998,13.135 18.097,12.98 18.196,12.826 18.345,12.704 18.545,12.613 18.745,12.523 18.989,12.477 19.277,12.477ZM8.415,12.47C9.354,12.47 10.114,13.23 10.114,14.169 10.114,15.107 9.354,15.868 8.415,15.868 7.477,15.868 6.716,15.107 6.716,14.169 6.716,13.23 7.477,12.47 8.415,12.47ZM12.179,8.313L12.179,8.742C12.235,8.726 12.287,8.702 12.335,8.672L12.835,8.672C12.688,8.898 12.453,9.06 12.179,9.111L12.179,9.535 12.653,9.535C12.991,9.535 13.265,9.261 13.265,8.924 13.265,8.587 12.991,8.313 12.653,8.313L12.179,8.313ZM11.82,7.525C11.557,7.603 11.365,7.846 11.365,8.134 11.365,8.421 11.557,8.665 11.82,8.742L11.82,7.525ZM12.179,6.73L12.179,7.156C12.454,7.206 12.689,7.369 12.835,7.595L12.335,7.595 12.179,7.525 12.179,7.954 12.653,7.954C12.991,7.954 13.266,7.68 13.266,7.342 13.266,7.004 12.991,6.73 12.653,6.73L12.179,6.73ZM11.76,6.73C11.589,6.73 11.429,6.795 11.307,6.914L10.267,7.954 11.023,7.954C11.097,7.55 11.416,7.231 11.821,7.156L11.821,6.73 11.76,6.73ZM11.998,5.344C13.164,5.344 14.163,6.059 14.581,7.074L14.188,7.074C13.794,6.264 12.962,5.705 12,5.705 10.657,5.705 9.568,6.794 9.568,8.137 9.568,8.14 9.568,8.143 9.568,8.145L11.054,6.659C11.245,6.473 11.495,6.371 11.759,6.371L12.653,6.371C13.188,6.371 13.624,6.807 13.624,7.342 13.624,7.668 13.462,7.957 13.214,8.134 13.462,8.309 13.624,8.598 13.624,8.924 13.624,9.459 13.188,9.894 12.653,9.894L11.82,9.894 11.82,9.111C11.416,9.037 11.097,8.717 11.023,8.313L9.908,8.313 9.615,8.606 9.614,8.607C9.833,9.725 10.818,10.569 12.001,10.569 12.958,10.569 13.786,10.015 14.182,9.213L14.574,9.213C14.152,10.219 13.158,10.927 11.998,10.927 10.724,10.927 9.65,10.073 9.315,8.907L8.343,9.878 7.836,9.878 9.229,8.485C9.214,8.371 9.207,8.254 9.207,8.135 9.207,6.593 10.456,5.344 11.998,5.344ZM12.001,3.532C10.879,3.532 9.859,3.988 9.122,4.724 9.122,4.724 9.121,4.725 9.119,4.727 7.857,5.974 2.59,12.166 2.59,12.166 2.162,12.719 1.908,13.412 1.908,14.165 1.908,14.295 1.915,14.424 1.93,14.55 2.042,15.504 2.565,16.332 3.317,16.853 3.317,16.853 5.538,18.585 12.024,18.585 18.511,18.585 20.684,16.853 20.684,16.853 21.422,16.341 21.94,15.533 22.064,14.599 22.083,14.458 22.093,14.313 22.093,14.165 22.093,13.412 21.839,12.719 21.411,12.167 21.411,12.167 16.131,5.983 14.877,4.727 14.877,4.727 14.873,4.724 14.873,4.724 14.136,3.988 13.122,3.532 12.001,3.532ZM12,-0C18.627,0 24,5.373 24,12C24,18.627 18.627,24 12,24 5.373,24 0,18.627 0,12 0,5.373 5.373,0 12,-0Z"/></svg>
